<svg xmlns="http://www.w3.org/2000/svg" xmlns:xlink="http://www.w3.org/1999/xlink" height="44px" width="130px" id="Layer_1" x="0px" y="0px" viewBox="0 0 400 135.1" style="enable-background:new 0 0 400 135.1;" xml:space="preserve">  <style type="text/css">	.st0{fill:#FF4D00;}</style>  <path class="st0" d="M245.6,0c0,0.3,0,0.6,0,0.9c0,29.5,0,58.9,0,88.4c0,3.4-2.3,6.1-5.1,6.9c-4.1,1.1-8.2-1.7-8.6-6  c0-0.2,0-0.3-0.1-0.5c-9.3,6.5-19.5,8.4-30.5,5.3c-7.6-2.2-13.6-6.7-18.2-13.1c-9.1-12.8-8.3-30.3,2-42.3c3.8-4.5,8.5-7.7,14-9.8  c5.5-2,11.1-2.7,16.9-1.9c5.8,0.8,11.1,3,15.8,6.4c0.1-0.3,0.1-0.6,0.1-0.9c0-8.7,0-17.5,0-26.2c0-1.6,0.4-3.1,1.4-4.4  c1.1-1.5,2.6-2.4,4.4-2.7c0.1,0,0.2,0,0.2-0.1C240.4,0,243,0,245.6,0z M231.8,62c0-11.4-9.1-20.6-20.6-20.7  c-11.4,0-20.7,9-20.7,20.5c-0.1,11.7,9.4,20.5,20.3,20.7C222.1,82.8,231.8,73.7,231.8,62z"></path>  <path class="st0" d="M400,90.3c-0.3,0.3-0.1,0.7-0.2,1c-0.8,2.6-2.6,4.3-5.2,4.8c-3.7,0.8-7.3-1.5-8.1-5.2c-0.1-0.5-0.2-0.9-0.2-1.4  c-8,5.7-16.8,7.9-26.4,6.3c-8.2-1.4-15.1-5.3-20.5-11.6c-10.5-12.2-11-30.1-1.3-42.9c3.7-4.9,8.4-8.5,14-11  c5.6-2.4,11.5-3.2,17.6-2.5c6.1,0.7,11.6,2.9,16.5,6.6c0.1-0.5,0.1-1,0.2-1.4c0.7-3.2,3.5-5.4,6.9-5.4c2,0,4,0,6,0  c0.3,0,0.5,0,0.8,0C400,48.4,400,69.4,400,90.3z M386.2,62c0.1-10.9-8.7-20.7-20.6-20.7c-11.6,0-20.7,9.4-20.7,20.6  c0,11.3,9.3,20.6,20.5,20.6C377.1,82.6,386.3,73.2,386.2,62z"></path>  <path class="st0" d="M35.8,134.9c-1,0-2.1,0-3.2-0.1c-6.9-0.4-13.1-2.6-18.6-6.7c-7.4-5.6-11.9-13-13.5-22.1  c-0.3-1.8-0.5-3.6-0.4-5.4c0-4.2,3.2-6.6,6.1-6.9c3.9-0.4,7.1,2.3,7.6,5.8c0.1,0.9,0.1,1.9,0.1,2.8c0.6,5.9,3.2,10.8,7.8,14.5  c3.9,3.1,8.5,4.6,13.4,4.4c10.3-0.4,18.1-7.9,19.7-17c0.2-1.3,0.3-2.7,0.3-4.1c0-3.3,0-6.5,0-9.8c0-0.2,0-0.4-0.1-0.6  c-0.3,0.1-0.5,0.3-0.7,0.4c-4.3,3.1-9.1,5-14.4,5.9c-15,2.4-29.5-5-36.4-18.6c-1.9-3.7-3-7.5-3.4-11.6c-0.2-1.8-0.3-3.7-0.2-5.5  c0.1-1.9,0.3-3.8,0.8-5.7c2.3-9.8,7.8-17.3,16.4-22.4c4-2.4,8.4-3.8,13-4.4c1.5-0.2,2.9-0.3,4.4-0.3c11.2,0,22.4,0,33.6,0  c0.1,0,0.1,0,0.1,0c0.7,0,0.7,0,0.7,0.7c0,2,0,4.1,0,6.1c0.1,3.4-2.4,6.3-5.8,6.9c-0.4,0.1-0.9,0.1-1.3,0.1c-9,0-18,0-27,0  c-4.2,0-8.1,1-11.6,3.3c-5.2,3.4-8.3,8.2-9.2,14.3c-1.6,10.6,5.2,20.8,15.9,23.2c11.5,2.6,22.3-4.9,24.7-15.8  c0.3-1.6,0.5-3.3,0.5-4.9c0-2.1,0-4.1,0-6.2c0-3.6,2.3-6.4,5.8-7c4.3-0.7,7.7,2.5,7.9,6.2c0,0.3,0,0.6,0,0.9c0,15,0,30,0,45  c0,15.6-10.5,29-25,33.1c-2.4,0.7-4.9,1.1-7.4,1.3C36.5,134.8,36.2,134.9,35.8,134.9z"></path>  <path class="st0" d="M269,68.9c0,0.3,0.1,0.5,0.2,0.7c3.1,7,8.3,11.4,15.9,12.7c6.8,1.1,12.7-0.8,17.7-5.6c2.5-2.4,6-2.7,8.8-0.9  c3.6,2.4,4.1,7.6,1,10.6c-5.1,5-11.2,8.2-18.2,9.4c-11.6,1.9-21.8-1.3-30.3-9.5c-5.3-5.2-8.6-11.6-9.7-18.9  c-2.8-17.7,8.3-34.6,25.7-38.9c3.9-1,7.9-1.2,11.9-0.8c11.5,1.2,21.9,8.2,27.2,18.7c1.8,3.6,3,7.5,3.4,11.5  c0.4,3.4,0.3,6.7-0.3,10.1c-0.1,0.8-0.1,0.8-0.9,0.8c-17.1,0-34.3,0-51.4,0C269.7,68.8,269.4,68.8,269,68.9z M307.8,55  c-0.3-2.2-3.2-6.5-5.9-8.8c-3.9-3.3-8.5-5-13.6-5c-5.2,0-9.7,1.8-13.6,5.2c-2.6,2.3-4.5,5.2-5.7,8.5C281.9,55,294.8,55,307.8,55z"></path>  <path class="st0" d="M92.5,68.9c0,0.4,0.2,0.7,0.3,1.1c3,6.7,8.1,10.9,15.4,12.2c6.9,1.3,13-0.7,18.1-5.5c1.4-1.3,3.1-2.1,5.1-2  c2.8,0,5.2,1.7,6.3,4.3c1,2.6,0.5,5.5-1.5,7.4c-5.1,5-11.2,8.2-18.2,9.4c-14.9,2.6-29.5-4.7-36.5-17.7c-2.2-4-3.4-8.3-3.9-12.9  c-1.6-17.3,9.7-32.3,25.4-36.5c4.1-1.1,8.3-1.4,12.6-1c14.4,1.5,26.9,12.1,30.1,27.1c0.9,4.4,1,8.9,0.2,13.4  c-0.1,0.6-0.1,0.6-0.7,0.6c-1,0-2,0-3,0c-16.2,0-32.4,0-48.6,0C93.2,68.8,92.8,68.8,92.5,68.9z M131.3,55c-2.1-6.5-9.3-14-20.1-13.7  c-4.8,0.1-9,1.8-12.7,4.9c-2.8,2.4-4.9,5.3-6.1,8.8C105.4,55,118.3,55,131.3,55z"></path>  <path class="st0" d="M168.4,59c0,10.1,0,20.3,0,30.4c0,2.8-1.3,4.9-3.7,6.2c-4.6,2.4-10.1-0.9-10.1-6.1c0-18.4,0-36.8,0-55.2  c0-3.8,3.1-6.8,7-6.9c2,0,4.1,0,6.1,0c0.8,0,0.7,0,0.7,0.8c0,9.1,0,18.2,0,27.3C168.4,56.7,168.4,57.8,168.4,59z"></path>  <path class="st0" d="M161.6,6.9c3.8,0,6.9,3.1,6.9,6.9c0,3.8-3.1,6.9-6.9,6.9c-3.8,0-6.9-3.1-6.9-6.9C154.6,9.9,157.7,6.9,161.6,6.9  z"></path></svg>